<svg width="60" height="60" viewBox="0 0 60 60" fill="none" xmlns="http://www.w3.org/2000/svg">
  <!-- Honeycomb background -->
  <circle cx="30" cy="30" r="28" fill="#FFB800" stroke="#FF8C00" stroke-width="2"/>
  
  <!-- Central hexagon -->
  <polygon points="30,12 42,19 42,31 30,38 18,31 18,19" fill="#FFA500" stroke="#FF6B00" stroke-width="1.5"/>
  
  <!-- AI nodes around hexagon -->
  <circle cx="30" cy="16" r="3" fill="#4CAF50" stroke="#2E7D32" stroke-width="1"/>
  <circle cx="38" cy="22" r="3" fill="#2196F3" stroke="#1565C0" stroke-width="1"/>
  <circle cx="38" cy="32" r="3" fill="#9C27B0" stroke="#6A1B9A" stroke-width="1"/>
  <circle cx="30" cy="38" r="3" fill="#FF5722" stroke="#D84315" stroke-width="1"/>
  <circle cx="22" cy="32" r="3" fill="#607D8B" stroke="#37474F" stroke-width="1"/>
  <circle cx="22" cy="22" r="3" fill="#795548" stroke="#5D4037" stroke-width="1"/>
  
  <!-- Central coordination symbol -->
  <circle cx="30" cy="27" r="2" fill="#FFF" stroke="#FF6B00" stroke-width="1"/>
  
  <!-- Connection lines -->
  <line x1="30" y1="19" x2="30" y2="25" stroke="#FFF" stroke-width="1" opacity="0.8"/>
  <line x1="35" y1="24" x2="32" y2="26" stroke="#FFF" stroke-width="1" opacity="0.8"/>
  <line x1="35" y1="30" x2="32" y2="28" stroke="#FFF" stroke-width="1" opacity="0.8"/>
  <line x1="30" y1="35" x2="30" y2="29" stroke="#FFF" stroke-width="1" opacity="0.8"/>
  <line x1="25" y1="30" x2="28" y2="28" stroke="#FFF" stroke-width="1" opacity="0.8"/>
  <line x1="25" y1="24" x2="28" y2="26" stroke="#FFF" stroke-width="1" opacity="0.8"/>
</svg>