<svg width="60" height="60" viewBox="0 0 60 60" fill="none" xmlns="http://www.w3.org/2000/svg">
  <!-- Background circle -->
  <circle cx="30" cy="30" r="28" fill="#1E88E5" stroke="#0D47A1" stroke-width="2"/>
  
  <!-- Shield shape -->
  <path d="M30 8 L44 16 L44 30 C44 42 30 50 30 50 C30 50 16 42 16 30 L16 16 Z" fill="#1976D2" stroke="#0D47A1" stroke-width="1.5"/>
  
  <!-- Inner shield -->
  <path d="M30 12 L40 18 L40 30 C40 38 30 44 30 44 C30 44 20 38 20 30 L20 18 Z" fill="#42A5F5" stroke="#1565C0" stroke-width="1"/>
  
  <!-- Checkmark -->
  <path d="M25 28 L29 32 L36 24" stroke="#FFF" stroke-width="3" stroke-linecap="round" stroke-linejoin="round" fill="none"/>
  
  <!-- Data symbols -->
  <rect x="22" y="20" width="2" height="6" fill="#E3F2FD" opacity="0.8"/>
  <rect x="25" y="18" width="2" height="8" fill="#E3F2FD" opacity="0.8"/>
  <rect x="33" y="18" width="2" height="8" fill="#E3F2FD" opacity="0.8"/>
  <rect x="36" y="20" width="2" height="6" fill="#E3F2FD" opacity="0.8"/>
  
  <!-- Lock symbol in corner -->
  <circle cx="42" cy="18" r="4" fill="#4CAF50" stroke="#2E7D32" stroke-width="1"/>
  <rect x="40" y="18" width="4" height="2" fill="#FFF"/>
  <circle cx="42" cy="17" r="1" fill="none" stroke="#FFF" stroke-width="1"/>
</svg>